<svg xmlns="http://www.w3.org/2000/svg" viewBox="0 0 24 24" fill="#0ea5e9">
  <path d="M15.5 5.5c1.1 0 2-.9 2-2s-.9-2-2-2-2 .9-2 2 .9 2 2 2zM5 12c-2.8 0-5 2.2-5 5s2.2 5 5 5 5-2.2 5-5-2.2-5-5-5zm0 8.5c-1.9 0-3.5-1.6-3.5-3.5s1.6-3.5 3.5-3.5 3.5 1.6 3.5 3.5-1.6 3.5-3.5 3.5zm14-8.5c-2.8 0-5 2.2-5 5s2.2 5 5 5 5-2.2 5-5-2.2-5-5-5zm0 8.5c-1.9 0-3.5-1.6-3.5-3.5s1.6-3.5 3.5-3.5 3.5 1.6 3.5 3.5-1.6 3.5-3.5 3.5zm-5-6h-2c0-1.8-1.2-3.3-2.8-3.8l-1.8-.6c-.4-.1-.8-.1-1.2.1L5 10.5V13h1.5v-1.8l1.2-.5L10 14h3.5v-1.5z"/>
</svg>
